# xmcd
#
# Track frame offsets:
#	150
#	17232
#	31140
#
# Disc length: 668 seconds
#
# Revision: 0
# Processed by: cddbd v1.5.1PL0 Copyright (c) Steve Scherf et al.
# Submitted via: audiograbber 1.81.02
#
DISCID=19029a03
DTITLE=Tracy Lawrence - The Club Disc
DYEAR=2004
DGENRE=Country
TTITLE0=Paint Me A Birmingham
TTITLE1=It's All How You Look At It
TTITLE2=Sawdust On Her Halo
EXTD=
EXTT0=
EXTT1=
EXTT2=
PLAYORDER=
